<svg width="1788" height="377" fill="none" xmlns="http://www.w3.org/2000/svg" id="svg1780949429_4717"><path d="M578.211 81.973h18.203v37.253h-23.56c-18.47 0-32.233 4.416-41.35 13.247-9.086 8.832-13.645 23.324-13.645 43.476V298.05h-37.205V82.803h37.205v34.348c0 1.927.977 2.905 2.901 2.905 1.095 0 1.924-.267 2.486-.83.563-.563 1.095-1.66 1.658-3.319 7.163-22.613 24.952-33.934 53.337-33.934h-.03Zm243.035 46.144c9.768 17.248 14.681 38.023 14.681 62.295 0 24.271-4.884 45.046-14.681 62.294-9.797 17.249-22.465 30.14-38.034 38.705-15.569 8.565-32.322 12.833-50.229 12.833-35.282 0-60.086-14.078-74.411-42.232-1.095-2.193-2.487-3.319-4.144-3.319-1.658 0-2.486.83-2.486 2.489v115.492h-37.206V82.804h37.206v36.837c0 1.659.828 2.489 2.486 2.489 1.657 0 3.019-1.096 4.144-3.319 14.325-28.154 39.129-42.232 74.411-42.232 17.907 0 34.66 4.268 50.229 12.833 15.569 8.565 28.237 21.456 38.034 38.705Zm-22.524 62.295c0-25.399-6.808-45.195-20.453-59.391-13.645-14.196-31.611-21.308-53.959-21.308-22.347 0-40.313 7.112-53.958 21.308-13.645 14.225-18.647 34.022-18.647 59.391 0 25.368 5.002 45.194 18.647 59.39 13.645 14.225 31.641 21.308 53.958 21.308 22.318 0 40.314-7.112 53.959-21.308 13.645-14.196 20.453-34.022 20.453-59.39Zm-592.241-61.969c9.767 17.248 14.681 38.023 14.681 62.295 0 24.271-4.884 45.046-14.681 62.294-9.797 17.249-22.466 30.14-38.035 38.705-15.569 8.565-32.321 12.833-50.229 12.833-35.281 0-60.085-14.078-74.41-42.232-1.096-2.193-2.487-3.319-4.145-3.319-1.657 0-2.486.83-2.486 2.489V377H0V83.13h37.206v36.837c0 1.659.828 2.489 2.486 2.489 1.657 0 3.019-1.096 4.144-3.319 14.325-28.154 39.13-42.231 74.411-42.231 17.907 0 34.66 4.267 50.229 12.832 15.569 8.565 28.237 21.456 38.034 38.705h-.029Zm-22.525 62.295c0-25.399-6.808-45.195-20.453-59.391-13.645-14.196-31.611-21.308-53.958-21.308-22.347 0-40.314 7.112-53.959 21.308-13.645 14.225-18.647 34.022-18.647 59.391 0 25.368 5.002 45.194 18.647 59.39 13.645 14.225 31.612 21.308 53.959 21.308 22.347 0 40.313-7.112 53.958-21.308 13.645-14.196 20.453-34.022 20.453-59.39Zm228.206 38.971h39.278c-5.239 20.152-15.924 37.608-32.026 52.367-16.131 14.759-39.218 22.138-69.261 22.138-22.613 0-42.504-4.623-59.73-13.87-17.227-9.246-30.517-22.405-39.899-39.534-9.383-17.1-14.06-37.253-14.06-60.428 0-23.176 4.558-43.328 13.645-60.428 9.087-17.1 21.844-30.288 38.242-39.535 16.398-9.246 35.607-13.87 57.658-13.87 22.051 0 40.314 4.565 55.616 13.663 15.303 9.098 26.728 21.19 34.305 36.215 7.577 15.055 11.366 31.533 11.366 49.463v24.835H275.742c1.361 21.516 8.613 38.645 21.696 51.329 13.082 12.685 30.664 19.056 52.715 19.056 17.907 0 31.641-3.645 41.142-10.965 9.501-7.32 16.457-17.456 20.867-30.436Zm-136.006-60.013h129.82c0-18.76-4.824-33.459-14.474-44.098-9.649-10.61-24.803-15.945-45.463-15.945-19.299 0-35.075 5.187-47.329 15.53-12.254 10.343-19.772 25.19-22.524 44.483l-.03.03ZM865.378 298.02h37.206V0h-37.206v298.05-.03ZM1381.61 59.302h43.45V12.714h-43.45v46.588Zm153.29 206.652c-6.75.681-10.83 1.037-12.19 1.037-1.93 0-3.47-.563-4.56-1.66-1.1-1.096-1.66-2.608-1.66-4.564 0-1.363.36-5.453 1.04-12.21.68-6.757 1.03-17.188 1.03-31.236V114.336h53.07l-10.45-31.533h-42.59V24.835h-37.2v57.938h-40.46v31.533h40.46v113.328c0 23.739 5.8 41.402 17.37 52.99 11.57 11.587 29.22 17.396 52.92 17.396h28.95v-33.103h-14.47c-14.06 0-24.48.355-31.23 1.037h-.03Zm217.7-183.18-61.6 180.6c-.82 2.223-2.13 5.127-6.36 5.127s-5.53-2.904-6.36-5.127l-61.6-180.602h-37.94l71.33 215.247h25.22c1.66 0 2.9.148 3.73.415.83.267 1.51.948 2.07 2.074 1.09 1.66.95 4.149-.42 7.439l-11.57 31.444c-1.66 4.149-4.82 6.223-9.5 6.223-1.66 0-5.5-.355-11.57-1.037-6.07-.681-13.91-1.037-23.56-1.037h-30.19v33.103h39.69c23.14 0 37.09-3.941 49.07-11.795 11.99-7.853 21.28-21.723 27.91-41.609L1788 91.012v-8.268h-35.4v.03Zm-492.52 80.313-58.28-80.314h-40.94v8.269l69.86 93.146-85.16 105.563v8.269h41.76l67.81-86.508 63.26 86.508h40.1v-8.269l-73.99-99.339 80.21-98.926v-8.683h-41.77l-62.83 80.314-.03-.03Zm125.5 134.933h37.2V82.803h-37.2V298.05v-.03Zm-238.33-68.311c-5.24 20.152-15.93 37.608-32.03 52.367-16.13 14.759-39.22 22.138-69.26 22.138-22.61 0-42.5-4.623-59.73-13.87-17.227-9.246-30.517-22.405-39.899-39.534-9.383-17.1-14.06-37.253-14.06-60.428 0-23.176 4.558-43.328 13.645-60.428 9.087-17.1 21.844-30.288 38.242-39.535 16.402-9.246 35.602-13.87 57.662-13.87 22.05 0 40.31 4.565 55.61 13.663 15.3 9.098 26.73 21.19 34.31 36.215 7.57 15.055 11.36 31.533 11.36 49.463v24.835H971.549c1.361 21.516 8.613 38.645 21.696 51.329 13.085 12.685 30.665 19.056 52.715 19.056 17.91 0 31.64-3.645 41.14-10.965s16.46-17.456 20.87-30.436h39.28Zm-175.287-60.013h129.817c0-18.76-4.82-33.459-14.47-44.098-9.65-10.61-24.8-15.945-45.46-15.945-19.3 0-35.08 5.187-47.333 15.53-12.254 10.343-19.772 25.19-22.524 44.483l-.03.03Z" fill="#fff"></path></svg>